<svg id="Capa_1" data-name="Capa 1" xmlns="http://www.w3.org/2000/svg" viewBox="0 0 133.21 30"><title>icono</title><path d="M47.59,14.06a4.94,4.94,0,0,0-1.67-.31c-1.32,0-1.94.54-1.94,1.14s0.15,0.72,1,.85l2.27,0.33c2.48,0.35,3.51,1.3,3.51,3.26s-1.34,3.74-5.1,3.74a14.41,14.41,0,0,1-4.25-.68v-3H44v1.26A6.82,6.82,0,0,0,45.9,21c0.6,0,2.11-.19,2.11-1.32,0-.6-0.37-0.91-1.63-1.09l-2.44-.37c-1.88-.29-2.68-1.32-2.68-2.87,0-2.66,2.52-3.53,4.75-3.53a13.2,13.2,0,0,1,4.19.72v2.67h-2.6v-1.1Z" style="fill:#333"/><path d="M52.42,9.78l2.89-.16V12H58.2v2.11H55.31v4.81c0,1.53.39,1.9,1.59,1.9a4.15,4.15,0,0,0,1.4-.33l-0.1,2a7.56,7.56,0,0,1-2.52.52c-2.13,0-3.26-1-3.26-2.89v-6H51V12h1.47V9.78h0Z" style="fill:#333"/><path d="M60.24,14.12h-1.4V12H63a16.43,16.43,0,0,1-.19,2.48h0c0.43-1.82,1.45-2.72,3.1-2.72a4.35,4.35,0,0,1,1,.12l-0.19,2.58a5.09,5.09,0,0,0-.93-0.1,2.61,2.61,0,0,0-2.69,2.85v3.49H64.5v2.11H59.07V20.71h1.18V14.12h0Z" style="fill:#333"/><path d="M70.15,18.07c0.08,1.71,1.41,2.77,3.43,2.77a7.93,7.93,0,0,0,3.49-.75l-0.14,2.29a10.8,10.8,0,0,1-4,.68c-4.17,0-5.93-2.6-5.93-5.6,0-3.37,2-5.7,5.43-5.7,3.72,0,5.22,2.81,5.22,6.3H70.15Zm4.38-2a2.08,2.08,0,0,0-2.19-2.33c-1.32,0-2.09.87-2.21,2.33h4.4Z" style="fill:#333"/><path d="M85.38,15.94c0-1.63-.68-2.06-2-2.06a6.61,6.61,0,0,0-1.8.31v1.45H79.06V12.88a9.48,9.48,0,0,1,4.32-1.11c2.89,0,4.73,1,4.73,4.15,0,1.78-.06,3.26-0.1,4.79h1.22v2.11H85.59V22.16a5.67,5.67,0,0,1,.14-1.49h0a3.46,3.46,0,0,1-3.53,2.4c-2.44,0-3.61-1.45-3.61-3.14a3.14,3.14,0,0,1,2.17-3,14.55,14.55,0,0,1,4.67-.5V15.94Zm-0.85,2.29c-2.35,0-3.1.49-3.1,1.42A1.36,1.36,0,0,0,83,21c1.16,0,2.31-.74,2.31-2.73H84.53Z" style="fill:#333"/><path d="M104,20.71H105V16.27a1.73,1.73,0,0,0-1.88-2c-1.4,0-2.29,1.14-2.29,2.87v3.59h1.24v2.11H96.89V20.71h1.06V16.27a1.73,1.73,0,0,0-1.88-2c-1.53,0-2.29,1.24-2.29,2.87v3.59H95v2.11H89.71V20.71h1.18V14.12h-1.4V12h4.23a9.82,9.82,0,0,1-.16,2.19h0a3.74,3.74,0,0,1,3.74-2.44,2.86,2.86,0,0,1,3.18,2.44h0a3.5,3.5,0,0,1,3.61-2.44c2.56,0,3.74,1.63,3.74,4.21v4.73h1.24v2.11H104V20.71h0Z" style="fill:#333"/><path d="M111.34,9h-1.65V6.94h4.54v4.23c0,0.87-.1,1.84-0.21,2.89h0a3.67,3.67,0,0,1,3.66-2.29c2.37,0,4.17,1.71,4.17,4.94,0,3-1.42,6.36-6,6.36a10.69,10.69,0,0,1-4.52-.91V9Zm2.83,11.28a4.65,4.65,0,0,0,1.84.39c2.09,0,3-1.76,3-3.68,0-1.49-.54-2.91-2.33-2.91s-2.5,1.38-2.5,2.72v3.47Z" style="fill:#74a2d1"/><path d="M125.69,18.07c0.08,1.71,1.4,2.77,3.43,2.77a7.93,7.93,0,0,0,3.49-.75l-0.14,2.29a10.8,10.8,0,0,1-4,.68c-4.17,0-5.93-2.6-5.93-5.6,0-3.37,2-5.7,5.43-5.7,3.72,0,5.22,2.81,5.22,6.3h-7.52Zm4.38-2a2.08,2.08,0,0,0-2.19-2.33c-1.32,0-2.09.87-2.21,2.33h4.4Z" style="fill:#74a2d1"/><path d="M15,0A15,15,0,1,0,30,15,15,15,0,0,0,15,0ZM3.89,14.85a11.11,11.11,0,0,1,.77-3.93A15.76,15.76,0,0,1,19.07,25.34a11.08,11.08,0,0,1-3.93.77A11.81,11.81,0,0,0,3.89,14.85Zm0.67,4a7.94,7.94,0,0,1,6.62,6.63A11.16,11.16,0,0,1,4.55,18.81Zm18.31,4L22.68,23A19.67,19.67,0,0,0,7,7.32l0.17-.18A11.12,11.12,0,1,1,22.86,22.86Z" style="fill:#74a2d1"/></svg>